<svg width="18" height="19" viewBox="0 0 18 19" fill="none" xmlns="http://www.w3.org/2000/svg">
<path d="M0.833313 17.1667V7.02599C0.833313 6.72732 0.900202 6.4446 1.03398 6.17782C1.16698 5.91105 1.35131 5.69093 1.58698 5.51749L7.86948 0.760989C8.1977 0.509767 8.57337 0.384155 8.99648 0.384155C9.41881 0.384155 9.79681 0.509767 10.1305 0.760989L16.413 5.51749C16.6486 5.69093 16.833 5.91105 16.966 6.17782C17.0998 6.4446 17.1666 6.72732 17.1666 7.02599V17.1667C17.1666 17.4793 17.0504 17.7519 16.8178 17.9845C16.5845 18.217 16.3119 18.3333 16 18.3333H12.0508C11.784 18.3333 11.5604 18.2431 11.38 18.0627C11.1995 17.8822 11.1093 17.6582 11.1093 17.3907V11.8268C11.1093 11.56 11.0187 11.3364 10.8375 11.156C10.657 10.9748 10.4334 10.8842 10.1666 10.8842H7.83331C7.56653 10.8842 7.34292 10.9748 7.16248 11.156C6.98126 11.3364 6.89065 11.56 6.89065 11.8268V17.3918C6.89065 17.6586 6.80042 17.8822 6.61998 18.0627C6.43954 18.2431 6.21592 18.3333 5.94915 18.3333H1.99998C1.68731 18.3333 1.4147 18.217 1.18215 17.9845C0.949591 17.7512 0.833313 17.4785 0.833313 17.1667Z" fill="#5061FF"/>
</svg>
