<svg width="18" height="19" viewBox="0 0 18 19" fill="none" xmlns="http://www.w3.org/2000/svg">
<path d="M0.833313 17.1668V7.02611C0.833313 6.72744 0.900202 6.44472 1.03398 6.17795C1.16698 5.91117 1.35131 5.69106 1.58698 5.51761L7.86948 0.761111C8.1977 0.509889 8.57337 0.384277 8.99648 0.384277C9.41881 0.384277 9.79681 0.509889 10.1305 0.761111L16.413 5.51761C16.6486 5.69106 16.833 5.91117 16.966 6.17795C17.0998 6.44472 17.1666 6.72744 17.1666 7.02611V17.1668C17.1666 17.4794 17.0504 17.7521 16.8178 17.9846C16.5845 18.2172 16.3119 18.3334 16 18.3334H12.0508C11.784 18.3334 11.5604 18.2432 11.38 18.0628C11.1995 17.8823 11.1093 17.6583 11.1093 17.3908V11.8269C11.1093 11.5602 11.0187 11.3366 10.8375 11.1561C10.657 10.9749 10.4334 10.8843 10.1666 10.8843H7.83331C7.56653 10.8843 7.34292 10.9749 7.16248 11.1561C6.98126 11.3366 6.89065 11.5602 6.89065 11.8269V17.3919C6.89065 17.6587 6.80042 17.8823 6.61998 18.0628C6.43954 18.2432 6.21592 18.3334 5.94915 18.3334H1.99998C1.68731 18.3334 1.4147 18.2172 1.18215 17.9846C0.949591 17.7513 0.833313 17.4787 0.833313 17.1668Z" fill="#8B8B8B"/>
</svg>
